# xmcd
#
# Track frame offsets: 
#        183
#        20140
#        37603
#
# Disc length: 732 seconds
#
# Revision: 1
# Processed by: cddbd v1.5.2PL0 Copyright (c) Steve Scherf et al.
# Submitted via: ExactAudioCopy v0.99pb5
#
DISCID=1802da03
DTITLE=Eroz ramazzotti - amarti e l'immenso per me
DYEAR=1998
DGENRE=Vocal
TTITLE0=amarti e l'immenso per me
TTITLE1=dammi la luna
TTITLE2=uno di noi
EXTD=YEAR: 1998 ID3G: 28
EXTT0=
EXTT1=
EXTT2=
PLAYORDER=
